<mxfile host="app.diagrams.net" modified="2024-01-23T23:04:49.500Z" agent="Mozilla/5.0 (Windows NT 10.0; Win64; x64) AppleWebKit/537.36 (KHTML, like Gecko) Chrome/120.0.0.0 Safari/537.36 Edg/120.0.0.0" etag="W6xpH1VdmbGUEsh_zhwl" version="23.0.0" type="github">
  <diagram id="C5RBs43oDa-KdzZeNtuy" name="Page-1">
    <mxGraphModel dx="880" dy="452" grid="1" gridSize="10" guides="1" tooltips="1" connect="1" arrows="1" fold="1" page="1" pageScale="1" pageWidth="827" pageHeight="1169" math="0" shadow="0">
      <root>
        <mxCell id="WIyWlLk6GJQsqaUBKTNV-0" />
        <mxCell id="WIyWlLk6GJQsqaUBKTNV-1" parent="WIyWlLk6GJQsqaUBKTNV-0" />
        <mxCell id="4wtLBtcPCshtJPpz5sj6-2" style="edgeStyle=none;rounded=0;orthogonalLoop=1;jettySize=auto;html=1;exitX=0.5;exitY=1;exitDx=0;exitDy=0;entryX=0.5;entryY=0;entryDx=0;entryDy=0;" edge="1" parent="WIyWlLk6GJQsqaUBKTNV-1" source="4wtLBtcPCshtJPpz5sj6-0" target="4wtLBtcPCshtJPpz5sj6-1">
          <mxGeometry relative="1" as="geometry" />
        </mxCell>
        <mxCell id="4wtLBtcPCshtJPpz5sj6-3" value="Fluxo&lt;br style=&quot;font-size: 13px;&quot;&gt;" style="edgeLabel;html=1;align=center;verticalAlign=middle;resizable=0;points=[];fontSize=13;" vertex="1" connectable="0" parent="4wtLBtcPCshtJPpz5sj6-2">
          <mxGeometry x="-0.175" relative="1" as="geometry">
            <mxPoint x="-20" as="offset" />
          </mxGeometry>
        </mxCell>
        <mxCell id="4wtLBtcPCshtJPpz5sj6-0" value="Terminal Inicio-Fim" style="rounded=1;whiteSpace=wrap;html=1;" vertex="1" parent="WIyWlLk6GJQsqaUBKTNV-1">
          <mxGeometry x="319" y="80" width="201" height="40" as="geometry" />
        </mxCell>
        <mxCell id="4wtLBtcPCshtJPpz5sj6-5" style="edgeStyle=none;rounded=0;orthogonalLoop=1;jettySize=auto;html=1;exitX=0.5;exitY=1;exitDx=0;exitDy=0;" edge="1" parent="WIyWlLk6GJQsqaUBKTNV-1" source="4wtLBtcPCshtJPpz5sj6-1" target="4wtLBtcPCshtJPpz5sj6-4">
          <mxGeometry relative="1" as="geometry" />
        </mxCell>
        <mxCell id="4wtLBtcPCshtJPpz5sj6-1" value="Processo" style="rounded=0;whiteSpace=wrap;html=1;" vertex="1" parent="WIyWlLk6GJQsqaUBKTNV-1">
          <mxGeometry x="320" y="200" width="200" height="40" as="geometry" />
        </mxCell>
        <mxCell id="4wtLBtcPCshtJPpz5sj6-4" value="Decisão" style="rhombus;whiteSpace=wrap;html=1;" vertex="1" parent="WIyWlLk6GJQsqaUBKTNV-1">
          <mxGeometry x="320" y="310" width="200" height="50" as="geometry" />
        </mxCell>
        <mxCell id="4wtLBtcPCshtJPpz5sj6-11" style="edgeStyle=none;rounded=0;orthogonalLoop=1;jettySize=auto;html=1;exitX=0;exitY=0.5;exitDx=0;exitDy=0;" edge="1" parent="WIyWlLk6GJQsqaUBKTNV-1" source="4wtLBtcPCshtJPpz5sj6-6" target="4wtLBtcPCshtJPpz5sj6-8">
          <mxGeometry relative="1" as="geometry" />
        </mxCell>
        <mxCell id="4wtLBtcPCshtJPpz5sj6-15" style="edgeStyle=none;rounded=0;orthogonalLoop=1;jettySize=auto;html=1;exitX=1;exitY=0;exitDx=0;exitDy=0;entryX=0;entryY=0.25;entryDx=0;entryDy=0;" edge="1" parent="WIyWlLk6GJQsqaUBKTNV-1" source="4wtLBtcPCshtJPpz5sj6-6" target="4wtLBtcPCshtJPpz5sj6-14">
          <mxGeometry relative="1" as="geometry" />
        </mxCell>
        <mxCell id="4wtLBtcPCshtJPpz5sj6-17" style="edgeStyle=none;rounded=0;orthogonalLoop=1;jettySize=auto;html=1;exitX=1;exitY=0.5;exitDx=0;exitDy=0;entryX=0;entryY=0.5;entryDx=0;entryDy=0;" edge="1" parent="WIyWlLk6GJQsqaUBKTNV-1" source="4wtLBtcPCshtJPpz5sj6-6" target="4wtLBtcPCshtJPpz5sj6-16">
          <mxGeometry relative="1" as="geometry" />
        </mxCell>
        <mxCell id="4wtLBtcPCshtJPpz5sj6-19" style="edgeStyle=none;rounded=0;orthogonalLoop=1;jettySize=auto;html=1;exitX=0.5;exitY=1;exitDx=0;exitDy=0;" edge="1" parent="WIyWlLk6GJQsqaUBKTNV-1" source="4wtLBtcPCshtJPpz5sj6-6" target="4wtLBtcPCshtJPpz5sj6-18">
          <mxGeometry relative="1" as="geometry" />
        </mxCell>
        <mxCell id="4wtLBtcPCshtJPpz5sj6-21" style="edgeStyle=none;rounded=0;orthogonalLoop=1;jettySize=auto;html=1;exitX=0;exitY=1;exitDx=0;exitDy=0;entryX=1;entryY=0;entryDx=0;entryDy=0;" edge="1" parent="WIyWlLk6GJQsqaUBKTNV-1" source="4wtLBtcPCshtJPpz5sj6-6" target="4wtLBtcPCshtJPpz5sj6-20">
          <mxGeometry relative="1" as="geometry" />
        </mxCell>
        <mxCell id="4wtLBtcPCshtJPpz5sj6-6" value="&lt;font color=&quot;#000066&quot;&gt;Ou&lt;/font&gt;" style="shape=orEllipse;perimeter=ellipsePerimeter;whiteSpace=wrap;html=1;backgroundOutline=1;" vertex="1" parent="WIyWlLk6GJQsqaUBKTNV-1">
          <mxGeometry x="380" y="410" width="80" height="80" as="geometry" />
        </mxCell>
        <mxCell id="4wtLBtcPCshtJPpz5sj6-7" style="edgeStyle=none;rounded=0;orthogonalLoop=1;jettySize=auto;html=1;exitX=0.5;exitY=1;exitDx=0;exitDy=0;entryX=0.513;entryY=0.138;entryDx=0;entryDy=0;entryPerimeter=0;" edge="1" parent="WIyWlLk6GJQsqaUBKTNV-1" source="4wtLBtcPCshtJPpz5sj6-4" target="4wtLBtcPCshtJPpz5sj6-6">
          <mxGeometry relative="1" as="geometry" />
        </mxCell>
        <mxCell id="4wtLBtcPCshtJPpz5sj6-8" value="Documento&lt;br&gt;" style="shape=document;whiteSpace=wrap;html=1;boundedLbl=1;" vertex="1" parent="WIyWlLk6GJQsqaUBKTNV-1">
          <mxGeometry x="180" y="415" width="100" height="70" as="geometry" />
        </mxCell>
        <mxCell id="4wtLBtcPCshtJPpz5sj6-12" value="Múltiplos Documentos&lt;br&gt;" style="strokeWidth=2;html=1;shape=mxgraph.flowchart.multi-document;whiteSpace=wrap;" vertex="1" parent="WIyWlLk6GJQsqaUBKTNV-1">
          <mxGeometry x="180" y="330" width="120" height="60" as="geometry" />
        </mxCell>
        <mxCell id="4wtLBtcPCshtJPpz5sj6-13" style="edgeStyle=none;rounded=0;orthogonalLoop=1;jettySize=auto;html=1;exitX=0;exitY=0;exitDx=0;exitDy=0;entryX=0.975;entryY=0.85;entryDx=0;entryDy=0;entryPerimeter=0;" edge="1" parent="WIyWlLk6GJQsqaUBKTNV-1" source="4wtLBtcPCshtJPpz5sj6-6" target="4wtLBtcPCshtJPpz5sj6-12">
          <mxGeometry relative="1" as="geometry" />
        </mxCell>
        <mxCell id="4wtLBtcPCshtJPpz5sj6-14" value="Dados" style="shape=parallelogram;perimeter=parallelogramPerimeter;whiteSpace=wrap;html=1;fixedSize=1;" vertex="1" parent="WIyWlLk6GJQsqaUBKTNV-1">
          <mxGeometry x="540" y="330" width="120" height="60" as="geometry" />
        </mxCell>
        <mxCell id="4wtLBtcPCshtJPpz5sj6-16" value="Banco de Dados&lt;br&gt;" style="shape=datastore;whiteSpace=wrap;html=1;" vertex="1" parent="WIyWlLk6GJQsqaUBKTNV-1">
          <mxGeometry x="570" y="410" width="70" height="70" as="geometry" />
        </mxCell>
        <mxCell id="4wtLBtcPCshtJPpz5sj6-25" style="edgeStyle=none;rounded=0;orthogonalLoop=1;jettySize=auto;html=1;exitX=0.5;exitY=1;exitDx=0;exitDy=0;" edge="1" parent="WIyWlLk6GJQsqaUBKTNV-1" source="4wtLBtcPCshtJPpz5sj6-18" target="4wtLBtcPCshtJPpz5sj6-24">
          <mxGeometry relative="1" as="geometry" />
        </mxCell>
        <mxCell id="4wtLBtcPCshtJPpz5sj6-18" value="Dados Armazenados&lt;br&gt;" style="shape=dataStorage;whiteSpace=wrap;html=1;fixedSize=1;" vertex="1" parent="WIyWlLk6GJQsqaUBKTNV-1">
          <mxGeometry x="330" y="540" width="180" height="70" as="geometry" />
        </mxCell>
        <mxCell id="4wtLBtcPCshtJPpz5sj6-27" style="edgeStyle=none;rounded=0;orthogonalLoop=1;jettySize=auto;html=1;exitX=0.5;exitY=1;exitDx=0;exitDy=0;" edge="1" parent="WIyWlLk6GJQsqaUBKTNV-1" source="4wtLBtcPCshtJPpz5sj6-20" target="4wtLBtcPCshtJPpz5sj6-26">
          <mxGeometry relative="1" as="geometry" />
        </mxCell>
        <mxCell id="4wtLBtcPCshtJPpz5sj6-20" value="Armazenamento Interno&lt;br&gt;" style="shape=internalStorage;whiteSpace=wrap;html=1;backgroundOutline=1;" vertex="1" parent="WIyWlLk6GJQsqaUBKTNV-1">
          <mxGeometry x="170" y="520" width="130" height="90" as="geometry" />
        </mxCell>
        <mxCell id="4wtLBtcPCshtJPpz5sj6-22" value="Display" style="strokeWidth=2;html=1;shape=mxgraph.flowchart.display;whiteSpace=wrap;" vertex="1" parent="WIyWlLk6GJQsqaUBKTNV-1">
          <mxGeometry x="560" y="535" width="100" height="60" as="geometry" />
        </mxCell>
        <mxCell id="4wtLBtcPCshtJPpz5sj6-23" style="edgeStyle=none;rounded=0;orthogonalLoop=1;jettySize=auto;html=1;exitX=1;exitY=1;exitDx=0;exitDy=0;entryX=0.2;entryY=0.14;entryDx=0;entryDy=0;entryPerimeter=0;" edge="1" parent="WIyWlLk6GJQsqaUBKTNV-1" source="4wtLBtcPCshtJPpz5sj6-6" target="4wtLBtcPCshtJPpz5sj6-22">
          <mxGeometry relative="1" as="geometry" />
        </mxCell>
        <mxCell id="4wtLBtcPCshtJPpz5sj6-29" style="edgeStyle=none;rounded=0;orthogonalLoop=1;jettySize=auto;html=1;exitX=1;exitY=0.5;exitDx=0;exitDy=0;" edge="1" parent="WIyWlLk6GJQsqaUBKTNV-1" source="4wtLBtcPCshtJPpz5sj6-24" target="4wtLBtcPCshtJPpz5sj6-28">
          <mxGeometry relative="1" as="geometry" />
        </mxCell>
        <mxCell id="4wtLBtcPCshtJPpz5sj6-24" value="Entrada / Saida" style="shape=parallelogram;perimeter=parallelogramPerimeter;whiteSpace=wrap;html=1;fixedSize=1;" vertex="1" parent="WIyWlLk6GJQsqaUBKTNV-1">
          <mxGeometry x="360" y="670" width="120" height="60" as="geometry" />
        </mxCell>
        <mxCell id="4wtLBtcPCshtJPpz5sj6-31" style="edgeStyle=none;rounded=0;orthogonalLoop=1;jettySize=auto;html=1;exitX=0.5;exitY=1;exitDx=0;exitDy=0;" edge="1" parent="WIyWlLk6GJQsqaUBKTNV-1" source="4wtLBtcPCshtJPpz5sj6-26" target="4wtLBtcPCshtJPpz5sj6-30">
          <mxGeometry relative="1" as="geometry" />
        </mxCell>
        <mxCell id="4wtLBtcPCshtJPpz5sj6-26" value="Entrada Manual" style="shape=manualInput;whiteSpace=wrap;html=1;" vertex="1" parent="WIyWlLk6GJQsqaUBKTNV-1">
          <mxGeometry x="190" y="650" width="80" height="80" as="geometry" />
        </mxCell>
        <mxCell id="4wtLBtcPCshtJPpz5sj6-28" value="Conector&lt;br&gt;" style="verticalLabelPosition=bottom;verticalAlign=top;html=1;shape=mxgraph.flowchart.on-page_reference;" vertex="1" parent="WIyWlLk6GJQsqaUBKTNV-1">
          <mxGeometry x="600" y="670" width="60" height="60" as="geometry" />
        </mxCell>
        <mxCell id="4wtLBtcPCshtJPpz5sj6-35" style="edgeStyle=none;rounded=0;orthogonalLoop=1;jettySize=auto;html=1;exitX=0.5;exitY=1;exitDx=0;exitDy=0;exitPerimeter=0;entryX=0.5;entryY=0;entryDx=0;entryDy=0;" edge="1" parent="WIyWlLk6GJQsqaUBKTNV-1" source="4wtLBtcPCshtJPpz5sj6-30" target="4wtLBtcPCshtJPpz5sj6-34">
          <mxGeometry relative="1" as="geometry" />
        </mxCell>
        <mxCell id="4wtLBtcPCshtJPpz5sj6-30" value="Mesclar" style="strokeWidth=2;html=1;shape=mxgraph.flowchart.merge_or_storage;whiteSpace=wrap;" vertex="1" parent="WIyWlLk6GJQsqaUBKTNV-1">
          <mxGeometry x="185" y="780" width="95" height="60" as="geometry" />
        </mxCell>
        <mxCell id="4wtLBtcPCshtJPpz5sj6-32" value="Processo Predefinido" style="verticalLabelPosition=bottom;verticalAlign=top;html=1;shape=process;whiteSpace=wrap;rounded=1;size=0.14;arcSize=6;" vertex="1" parent="WIyWlLk6GJQsqaUBKTNV-1">
          <mxGeometry x="580" y="780" width="100" height="60" as="geometry" />
        </mxCell>
        <mxCell id="4wtLBtcPCshtJPpz5sj6-33" style="edgeStyle=none;rounded=0;orthogonalLoop=1;jettySize=auto;html=1;exitX=0.5;exitY=1;exitDx=0;exitDy=0;exitPerimeter=0;entryX=0.5;entryY=0;entryDx=0;entryDy=0;" edge="1" parent="WIyWlLk6GJQsqaUBKTNV-1" target="4wtLBtcPCshtJPpz5sj6-32">
          <mxGeometry relative="1" as="geometry">
            <mxPoint x="633" y="728.02" as="sourcePoint" />
            <mxPoint x="627" y="790" as="targetPoint" />
          </mxGeometry>
        </mxCell>
        <mxCell id="4wtLBtcPCshtJPpz5sj6-37" style="rounded=0;orthogonalLoop=1;jettySize=auto;html=1;exitX=1;exitY=0;exitDx=0;exitDy=0;entryX=0;entryY=0.5;entryDx=0;entryDy=0;" edge="1" parent="WIyWlLk6GJQsqaUBKTNV-1" source="4wtLBtcPCshtJPpz5sj6-34" target="4wtLBtcPCshtJPpz5sj6-36">
          <mxGeometry relative="1" as="geometry" />
        </mxCell>
        <mxCell id="4wtLBtcPCshtJPpz5sj6-34" value="Operação Manual" style="verticalLabelPosition=middle;verticalAlign=middle;html=1;shape=trapezoid;perimeter=trapezoidPerimeter;whiteSpace=wrap;size=0.23;arcSize=10;flipV=1;labelPosition=center;align=center;" vertex="1" parent="WIyWlLk6GJQsqaUBKTNV-1">
          <mxGeometry x="168" y="890" width="130" height="60" as="geometry" />
        </mxCell>
        <mxCell id="4wtLBtcPCshtJPpz5sj6-38" style="edgeStyle=none;rounded=0;orthogonalLoop=1;jettySize=auto;html=1;exitX=1;exitY=0.5;exitDx=0;exitDy=0;entryX=0;entryY=0.5;entryDx=0;entryDy=0;" edge="1" parent="WIyWlLk6GJQsqaUBKTNV-1" source="4wtLBtcPCshtJPpz5sj6-36" target="4wtLBtcPCshtJPpz5sj6-32">
          <mxGeometry relative="1" as="geometry" />
        </mxCell>
        <mxCell id="4wtLBtcPCshtJPpz5sj6-36" value="Preparação" style="shape=hexagon;perimeter=hexagonPerimeter2;whiteSpace=wrap;html=1;fixedSize=1;" vertex="1" parent="WIyWlLk6GJQsqaUBKTNV-1">
          <mxGeometry x="370" y="830" width="120" height="80" as="geometry" />
        </mxCell>
      </root>
    </mxGraphModel>
  </diagram>
</mxfile>
